<?xml version="1.0" encoding="UTF-8"?>
<!-- Created with EazyDraw for Mac ( http://www.eazydraw.com/ ) -->

<svg
    version="1.1"
    xmlns:dc="http://purl.org/dc/elements/1.1/"
    xmlns:cc="http://creativecommons.org/ns#"
    xmlns:rdf="http://www.w3.org/1999/02/22-rdf-syntax-ns#"
    xmlns:svg="http://www.w3.org/2000/svg"
    xmlns:xlink="http://www.w3.org/1999/xlink"
    xmlns="http://www.w3.org/2000/svg"
    width="126.848996247"
    height="125.099742519"
    viewBox="0, 0, 126.848996247, 125.099742519"
    preserveAspectRatio="none"
    id="svg2">
   <defs
       id="defs_A7CA2943"/>
   <metadata
       id="metadata7">
      <rdf:RDF>
         <cc:Work
             rdf:about="">
            <dc:format>image/svg+xml</dc:format>
            <dc:type rdf:resource="http://purl.org/dc/dcmitype/StillImage"/>
            <dc:title></dc:title>
         </cc:Work>
      </rdf:RDF>
   </metadata>
   <g
       id="layer_Paper"
       style="fill:#000000;fill-opacity:1;stroke:#000000;stroke-opacity:1;fill-rule:nonzero;stroke-linecap:square;stroke-linejoin:miter;stroke-width:1;stroke-miterlimit:10">
      <path
          style="fill:none;stroke:#6A849E;stroke-width:3"
          id="0C8B0043"
          d="M56.0141617942,123.501718413 C92.4672621419,125.910138042 138.747046026,83.5580648309 121.706707799,38.3628777857 C110.556256355,-9.025981654126 22.9686632791,-13.8826930227 5.793753646682,42.3683881821
C-19.6149778494,98.3012313121 74.7503420258,140.317755398 105.347026624,83.0791714044 C143.817086755,27.4763624335 43.8290271972,-19.433265251 19.0870745514,40.3400010619 C-11.9962525361,98.5314291068 93.0925381547,123.896579319 100.336992585,65.6969434997
C112.844009222,8.932597728522 16.7885242823,13.4631079707 26.0208554802,61.4143310002 C30.0302649963,108.329641627 103.463279577,86.5371554566 88.8956279865,52.2891910262 C79.4372830347,18.2777707426 28.9553313836,38.0427011655 37.8102145537,61.7496287337
C42.576011537,85.5050722595 75.5218476643,79.2983636672 76.9536618369,64.2021157347 C80.8666348269,49.4847476906 65.2062280952,42.8262316529 58.416276755,46.9818420058 C50.7038255102,50.470011416 50.6129202208,57.4552280388 52.3191133769,59.8062499904
C54.0589312571,62.5551874172 56.3311683477,62.5187801601 57.2463430438,62.0628023725 C58.280758321,61.5607761224 58.4836655284,60.6107436503 58.8523882651,59.8038964823 C59.1645802205,58.9793868047 59.8755429743,58.3192790708 60.3862374002,58.4194668624
C60.9684303678,58.5211653551 60.5078738845,59.0031826011 60.4768926095,58.6592455515 C60.4678089332,58.4957997565 60.7898424493,58.5111764759 60.6838617042,58.674754786 L60.6838617042,58.674754786"/>
   </g>
</svg>
